<svg width="24" height="24" viewBox="0 0 24 24" fill="none" xmlns="http://www.w3.org/2000/svg">
<path d="M12 0L13.1237 6.35068L16.5922 0.913445L15.2001 7.21074L20.4853 3.51472L16.7893 8.79992L23.0866 7.4078L17.6493 10.8763L24 12L17.6493 13.1237L23.0866 16.5922L16.7893 15.2001L20.4853 20.4853L15.2001 16.7893L16.5922 23.0866L13.1237 17.6493L12 24L10.8763 17.6493L7.4078 23.0866L8.79992 16.7893L3.51472 20.4853L7.21074 15.2001L0.913445 16.5922L6.35068 13.1237L0 12L6.35068 10.8763L0.913445 7.4078L7.21074 8.79992L3.51472 3.51472L8.79992 7.21074L7.4078 0.913445L10.8763 6.35068L12 0Z" fill="#F18701"/>
</svg>
