<svg width="20" height="19" viewBox="0 0 20 19" fill="none" xmlns="http://www.w3.org/2000/svg">
<path d="M8.63792 0.952995C9.17404 -0.209313 10.826 -0.20931 11.3621 0.952997L13.034 4.57763C13.2525 5.05133 13.7014 5.3775 14.2194 5.43892L18.1833 5.9089C19.4544 6.05961 19.9649 7.63069 19.0251 8.49974L16.0945 11.2099C15.7115 11.5641 15.5401 12.0918 15.6417 12.6035L16.4196 16.5186C16.6691 17.774 15.3327 18.745 14.2157 18.1198L10.7327 16.1701C10.2775 15.9153 9.72255 15.9153 9.26734 16.1701L5.78425 18.1198C4.66734 18.745 3.3309 17.774 3.58035 16.5186L4.35828 12.6035C4.45995 12.0918 4.28847 11.5641 3.90547 11.2099L0.97488 8.49974C0.0351298 7.63069 0.545606 6.05961 1.8167 5.9089L5.78056 5.43892C6.29861 5.3775 6.74753 5.05133 6.96603 4.57762L8.63792 0.952995Z" fill="#F18701"/>
</svg>
