<svg width="24" height="24" viewBox="0 0 24 24" fill="none" xmlns="http://www.w3.org/2000/svg">
<path d="M12 0L12.6587 5.31236L14.3411 0.230577L13.9507 5.56936L16.5922 0.913445L15.1678 6.07349L18.6668 2.02236L16.2631 6.80537L20.4853 3.51472L17.1946 7.73688L21.9776 5.33316L17.9265 8.83221L23.0866 7.4078L18.4306 10.0493L23.7694 9.65892L18.6876 11.3413L24 12L18.6876 12.6587L23.7694 14.3411L18.4306 13.9507L23.0866 16.5922L17.9265 15.1678L21.9776 18.6668L17.1946 16.2631L20.4853 20.4853L16.2631 17.1946L18.6668 21.9776L15.1678 17.9265L16.5922 23.0866L13.9507 18.4306L14.3411 23.7694L12.6587 18.6876L12 24L11.3413 18.6876L9.65892 23.7694L10.0493 18.4306L7.4078 23.0866L8.83221 17.9265L5.33316 21.9776L7.73688 17.1946L3.51472 20.4853L6.80537 16.2631L2.02236 18.6668L6.07349 15.1678L0.913445 16.5922L5.56936 13.9507L0.230577 14.3411L5.31236 12.6587L0 12L5.31236 11.3413L0.230577 9.65892L5.56936 10.0493L0.913445 7.4078L6.07349 8.83221L2.02236 5.33316L6.80537 7.73688L3.51472 3.51472L7.73688 6.80537L5.33316 2.02236L8.83221 6.07349L7.4078 0.913445L10.0493 5.56936L9.65892 0.230577L11.3413 5.31236L12 0Z" fill="#F18701"/>
</svg>
